<svg width="23" height="24" viewBox="0 0 23 24" fill="none" xmlns="http://www.w3.org/2000/svg">
<path d="M13.1414 7C13.1414 5.89543 13.9819 5 15.0187 5H17.8347C18.8715 5 19.712 5.89543 19.712 7V10C19.712 11.1046 18.8715 12 17.8347 12H15.0187C13.9819 12 13.1414 11.1046 13.1414 10V7Z" fill="white"/>
<path d="M13.1414 16C13.1414 14.8954 13.9819 14 15.0187 14H17.8347C18.8715 14 19.712 14.8954 19.712 16V19C19.712 20.1046 18.8715 21 17.8347 21H15.0187C13.9819 21 13.1414 20.1046 13.1414 19V16Z" fill="white"/>
<path d="M4.69337 16C4.69337 14.8954 5.53388 14 6.57071 14H9.38671C10.4235 14 11.264 14.8954 11.264 16V19C11.264 20.1046 10.4235 21 9.38671 21H6.57071C5.53388 21 4.69337 20.1046 4.69337 19V16Z" fill="white"/>
<path d="M2.81604 5C2.81604 3.89543 3.65655 3 4.69337 3H9.38671C10.4235 3 11.264 3.89543 11.264 5V10C11.264 11.1046 10.4235 12 9.38671 12H4.69337C3.65655 12 2.81604 11.1046 2.81604 10V5Z" fill="white"/>
</svg>
